<?xml version="1.0" encoding="UTF-8"?>
<svg width="128px" height="128px" viewBox="0 0 128 128" version="1.1" xmlns="http://www.w3.org/2000/svg" xmlns:xlink="http://www.w3.org/1999/xlink">
    <title>icon</title>
    <g id="icon" stroke="none" stroke-width="1" fill="none" fill-rule="evenodd">
        <rect id="Rectangle" stroke="#A6A6A6" stroke-width="4" x="2" y="2" width="124" height="124" rx="36"></rect>
        <path d="M86,62 L86,74 C86,78.3349143 89.4478378,81.8645429 93.7508207,81.9961932 L94,82 C98.418278,82 102,78.418278 102,74 L102,62 L128,62 L128,66 L106,66 L106,74 C106,80.627417 100.627417,86 94,86 C87.372583,86 82,80.627417 82,74 L82,66 L42,66 L42,54 C42,49.581722 38.418278,46 34,46 L33.7508207,46.0038068 C29.4478378,46.1354571 26,49.6650857 26,54 L26,66 L0,66 L0,62 L22,62 L22,54 C22,47.372583 27.372583,42 34,42 C40.627417,42 46,47.372583 46,54 L46,62 L86,62 Z" id="Combined-Shape" fill="#A6A6A6" fill-rule="nonzero"></path>
        <path d="M62,-7.10542736e-15 L66,-7.10542736e-15 L65.999,22 L74,22 C80.627417,22 86,27.372583 86,34 C86,40.627417 80.627417,46 74,46 L65.999,46 L65.999,82 L66,86 L54,86 C49.581722,86 46,89.581722 46,94 L46.0038068,94.2491793 C46.1354571,98.5521622 49.6650857,102 54,102 L66,102 L66,128 L62,128 L62,106 L54,106 C47.372583,106 42,100.627417 42,94 C42,87.372583 47.372583,82 54,82 L62,82 L62,42 L74,42 C78.3349143,42 81.8645429,38.5521622 81.9961932,34.2491793 L82,34 C82,29.581722 78.418278,26 74,26 L62,26 L62,-7.10542736e-15 Z" id="Combined-Shape" fill="#A6A6A6" fill-rule="nonzero"></path>
    </g>
</svg>